<svg width="531" height="488" viewBox="0 0 531 488" fill="none" xmlns="http://www.w3.org/2000/svg">
<path d="M87.439 272.535L-50.1854 472.143L113.215 337.911L299.312 284.747L319.883 162.144L407.873 70.6565L290.249 125.472L192.546 285.211L87.439 272.535Z" fill="#42E19B"/>
<path d="M40.2009 213.833L-153.291 418.141L45.9394 252.848L183.025 232.684L311.821 70.7164L473.791 2.23469e-05L296.551 40.1375L167.62 195.091L40.2009 213.833Z" fill="#42E19B"/>
<path d="M-7.78749 192.755L-168.999 372.386L-36.2691 139.501L153.024 169.102L-7.78749 192.755Z" fill="#42E19B"/>
<path d="M259.102 47.9904L173.579 137.943L99.9724 113.6L259.102 47.9904Z" fill="#42E19B"/>
<path d="M-118.281 436.438L-9.6365 326.672L8.10189 355.716L-118.281 436.438Z" fill="#42E19B"/>
</svg>
