<svg width="1175" height="341" viewBox="0 0 1175 341" fill="none" xmlns="http://www.w3.org/2000/svg">
<g clip-path="url(#clip0_44_3)">
<path fill-rule="evenodd" clip-rule="evenodd" d="M1791.24 157.296L1793.44 155.491C1793.95 155.905 1794.7 156.385 1795.17 156.988C1795.28 157.13 1794.38 157.978 1794.14 157.954C1793.13 157.844 1792.2 157.531 1791.24 157.296ZM1812.73 156.994C1813.67 156.526 1814.83 155.601 1815.5 155.705C1816.4 155.839 1816.94 156.773 1817.63 157.366C1816.69 157.838 1815.52 158.771 1814.87 158.659C1813.95 158.516 1813.42 157.587 1812.73 156.994ZM1750.83 163.126C1751.95 163.345 1753.06 163.56 1754.18 163.774C1753.59 164.5 1753.18 165.63 1752.38 165.836C1751.45 166.082 1750.19 165.521 1749.07 165.307C1749.66 164.577 1750.24 163.851 1750.83 163.126ZM1843.24 153.898C1848.01 152.986 1852.79 152.075 1857.56 151.158C1858.06 152.494 1858.58 153.828 1859.08 155.164L1845.3 159.234C1844.61 157.458 1843.93 155.678 1843.24 153.898ZM699.956 324.698C698.803 325.241 697.628 326.143 696.526 326.188C695.709 326.214 694.986 325.118 694.222 324.52C695.389 324.011 696.572 323.17 697.719 323.103C698.487 323.063 699.212 324.127 699.956 324.697V324.698ZM53.092 159.902C52.622 160.684 52.155 161.456 51.679 162.239C50.517 162.005 49.361 161.78 48.2 161.552C48.68 160.768 48.968 159.504 49.675 159.326C50.651 159.09 51.935 159.672 53.092 159.902ZM1322.31 27.292C1319.62 26.582 1317.73 24.726 1315.52 23.327C1316.94 22.337 1318.71 20.417 1319.74 20.512C1322.72 20.808 1325.41 21.91 1330.58 23.348C1326.26 25.488 1323.45 27.596 1322.31 27.292ZM1152.02 19.443C1160.54 13.556 1167.69 5.52996 1183.71 8.21896C1177.22 20.366 1163.21 17.676 1152.02 19.443ZM264.804 269.06C261.869 266.069 259.031 263.174 256.328 260.417C237.967 260.268 219.754 260.13 201.54 259.987L201.427 256.061C220.934 252.535 240.374 248.643 259.963 245.628C270.285 244.036 272.763 250.244 275.393 255.118C278.478 260.822 278.093 260.944 264.804 269.06ZM423.314 53.668C423.541 53.767 423.73 53.845 423.952 53.939C423.78 53.974 423.61 53.998 423.438 54.032C423.564 54.412 423.684 54.782 423.313 53.668H423.314ZM700.358 51.538C691.49 46.662 685.614 43.426 678.788 39.675C697.159 33.543 700.118 35.025 700.358 51.538ZM737.096 53.066C751.383 54.546 766.971 52.486 781.969 52.176C787.395 52.062 792.756 52.558 800.053 52.85C792.685 60.76 786.844 67.04 780.094 74.288C768.47 74.311 757.682 74.552 747.014 74.268C739.897 74.077 735.18 75.628 729.854 79.765C718.581 88.501 703.995 89.735 690.826 84.34C672.907 76.998 671.14 77.257 650.748 87.28C647.119 89.066 642.146 89.461 632.704 91.698C638.474 85.701 641.066 83.01 644.133 79.829C642.008 79.589 639.951 78.869 638.345 79.273C630.233 81.333 622.075 84.21 613.953 77.055C628.377 74.525 640.223 72.055 652.183 70.448C669.357 68.138 685.766 66.789 701.425 57.908C709.954 53.08 723.96 51.708 737.095 53.066H737.096ZM814.053 18.024C823.833 9.53397 823.833 9.53397 838.897 14.532L814.053 18.024ZM1231.93 45.924C1242.73 52.5993 1253.97 58.5378 1265.56 63.699C1269.64 65.52 1276.5 65.126 1282.14 64.866C1299.6 64.065 1317.13 62.381 1334.54 61.91C1351.47 61.454 1368.3 62.069 1386.77 62.228C1375.13 75.528 1357.59 80.33 1340.72 85.468C1337.41 86.482 1331.25 85.846 1328.98 84.241C1321.82 79.172 1313.79 80.218 1305.16 83.041C1290.9 87.695 1278.16 83.369 1264.7 83.301C1248.98 83.231 1233.14 83.318 1217.34 84.445C1212.44 84.789 1206.57 88.197 1202.79 91.169C1196.04 96.474 1188.64 98.533 1179.22 98.592C1172.05 98.643 1164.71 99.758 1157.45 100.454C1155.28 100.66 1152.68 101.679 1150.99 101.257C1121.9 93.953 1089.72 103.735 1060 100.237C1054.83 99.631 1049.72 98.849 1044.58 98.149C1044.94 97.073 1045.3 95.993 1045.66 94.908C1047.63 94.39 1050.03 93.138 1051.52 93.447C1066.52 96.635 1076.94 93.607 1086.9 83.325C1091.4 78.665 1103.22 76.378 1112.16 74.369C1121.93 72.175 1132.37 70.472 1142.23 70.446C1159.84 70.407 1176.1 64.466 1193.12 62.696C1216.11 60.313 1216.45 60.376 1211.74 44.972C1219.67 40.432 1225.33 41.848 1231.93 45.924ZM1458.7 42.724L1457.07 39.304C1459.75 37.757 1462.38 35.072 1465.09 34.837C1484.83 33.045 1504.61 31.745 1524.39 31.297C1503.51 42.047 1480.48 38.575 1458.7 42.724ZM1570.16 13.776C1580.65 5.85997 1594.13 5.48597 1604.63 6.40097C1614.26 7.23297 1622.11 13.287 1631.45 17.359C1619.48 28.353 1604.76 23.792 1593.34 28.517C1585.6 23.593 1578.34 18.977 1570.16 13.776ZM1975.69 -51.139C1976.56 -51.413 1977.94 -50.723 1979.09 -50.456C1978.75 -49.556 1978.4 -48.665 1978.05 -47.774C1976.46 -48.137 1974.87 -48.514 1973.29 -48.877C1974.06 -49.671 1974.66 -50.827 1975.69 -51.139ZM1650.45 6.27597L1637.95 8.03197C1637.72 7.05497 1637.48 6.06897 1637.25 5.09797C1641.42 4.31897 1645.58 3.53497 1649.75 2.75597L1650.45 6.27597ZM1745.19 -8.03703C1737.06 -2.06925 1728.94 3.90141 1720.81 9.87497C1715.18 7.74897 1709.68 5.67297 1701.47 2.57097C1716.39 -2.58403 1726.98 -8.29203 1745.19 -8.03703ZM1791.51 -7.33303C1780.46 -3.37003 1770.61 0.173965 1760.23 3.88997C1763.21 -10.215 1771.83 -13.497 1791.51 -7.33303ZM1827.87 -14.487C1827.18 -12.686 1826.48 -10.884 1825.79 -9.08103C1822.14 -9.96503 1818.44 -10.789 1814.92 -11.851C1814.61 -11.95 1815.56 -14.415 1815.81 -14.429C1819.85 -14.578 1823.85 -14.503 1827.87 -14.487ZM1447.8 60.85C1447.68 61.353 1445.49 61.786 1444.25 62.243C1443.49 61.743 1442.73 61.243 1441.96 60.744C1443.77 59.382 1445.57 58.02 1447.38 56.652C1447.58 58.052 1448.12 59.465 1447.8 60.85ZM1388.53 85.078C1394.65 79.752 1399.73 75.326 1406.33 69.584C1408.16 82.147 1408.16 82.147 1388.53 85.078ZM1654.25 41.956C1653.31 42.506 1652.37 43.041 1651.42 43.582C1650.83 42.98 1649.59 42.282 1649.81 41.812C1650.12 41.167 1651.55 40.699 1652.5 40.158C1653.09 40.761 1653.67 41.358 1654.25 41.956ZM1749.97 31.666C1747.39 33.441 1745.92 35.137 1744.7 35.147C1742.31 35.164 1740.07 34.24 1737.76 33.707C1739.16 32.338 1740.43 30.059 1742.01 29.827C1744.14 29.517 1746.52 30.782 1749.97 31.666ZM1575.44 62.876C1570.73 62.189 1566.02 61.503 1558.78 60.45C1567.89 55.05 1572.62 55.99 1575.44 62.877V62.876ZM1226.23 102.974C1227.53 102.634 1229.43 103.742 1232.83 104.702C1229.42 106.645 1227.46 107.971 1225.2 108.848C1224.85 108.986 1221.98 107.036 1222.22 106.141C1222.52 104.985 1224.55 103.414 1226.23 102.974ZM1138.49 116.177C1137.92 116.247 1137.22 116.466 1136.81 116.33C1136.42 116.206 1136.35 115.699 1136.15 115.362C1136.61 115.093 1137.06 114.826 1137.51 114.558C1137.84 115.098 1138.16 115.642 1138.49 116.177ZM335.022 227.393C358.808 217.86 381.509 223.406 403.886 221.74C426.356 220.067 448.822 219.55 471.29 218.53C418.874 230.064 356.275 233.54 335.022 227.393ZM1322.9 101.286C1322.07 101.978 1321.32 102.737 1320.33 103.293C1320.01 103.481 1318.49 103.144 1318.52 103.058C1318.67 102.268 1319.03 101.475 1319.33 100.685C1320.52 100.889 1321.71 101.089 1322.9 101.286ZM500.622 228.55C498.057 228.754 496.176 228.908 494.294 229.058C495.693 228.522 497.062 227.921 498.518 227.498C498.835 227.406 499.455 227.946 500.622 228.55ZM1600.54 85.85C1599.19 86.866 1597.57 88.783 1596.55 88.717C1594.34 88.572 1592.44 87.402 1590.41 86.652C1591.58 85.531 1592.76 84.419 1594.87 82.418C1597.12 83.784 1598.83 84.82 1600.54 85.85ZM1954.54 36.867C1951.89 38.52 1949.89 40.281 1949.19 40.097C1946.94 39.515 1945.17 38.226 1943.21 37.204C1944.47 36.197 1946.09 34.259 1946.92 34.357C1949.26 34.614 1951.27 35.705 1954.54 36.867ZM2100.28 16.715C2097.53 18.193 2094.84 19.717 2091.97 21.055C2091.74 21.161 2090.34 19.983 2089.49 19.402C2092.17 17.74 2094.84 16.067 2097.52 14.405C2098.43 15.171 2099.36 15.945 2100.28 16.715ZM1345.03 128.112C1345.29 128.262 1344.96 128.906 1344.9 129.333H1342.97C1343.03 128.906 1343.1 128.477 1343.17 128.049C1343.81 128.054 1344.64 127.895 1345.03 128.112H1345.03ZM1270.08 145.965C1256.4 153.978 1244.42 150.57 1231.8 152.186C1242.54 142.046 1244.46 141.718 1270.08 145.965ZM1288.45 147.131C1287.43 147.473 1286.42 147.819 1285.41 148.165C1285.37 147.7 1285.07 147.146 1285.37 146.801C1285.66 146.457 1286.56 146.341 1287.19 146.121C1287.61 146.465 1288.03 146.799 1288.45 147.131ZM1243.68 157.998C1243.62 158.638 1243.55 159.278 1243.48 159.918C1241.31 159.874 1239.13 159.84 1236.97 159.72C1236.87 159.718 1236.97 158.564 1237.01 158.559C1239.24 158.329 1241.46 158.169 1243.68 157.998ZM774.008 211.888C774.441 211.137 774.873 209.785 775.303 209.75C776.928 209.632 778.545 209.943 780.166 210.092C779.31 210.776 778.451 211.467 777.596 212.157C776.396 212.064 775.202 211.976 774.008 211.887V211.888ZM1164.62 150.195C1168.89 150.499 1173.15 150.793 1180.39 151.302C1172.06 156.603 1167.62 156.078 1164.62 150.195ZM1192.1 151.587C1200.82 146.126 1206.72 142.432 1215.57 136.891C1216.2 149.591 1207.39 151.116 1192.1 151.587ZM1121.36 158.867C1118.98 159.081 1116.51 156.386 1114.07 155.018C1117 153.112 1119.91 149.802 1122.84 149.567C1131.02 148.904 1139.21 149.525 1147.4 149.645C1147.47 151.408 1147.53 153.177 1147.59 154.94C1138.85 156.325 1130.12 158.08 1121.36 158.866V158.867ZM1074.53 161.59L1089.73 159.454L1090.51 162.434C1085.47 163.419 1080.43 164.41 1075.39 165.401C1075.1 164.134 1074.82 162.862 1074.53 161.59ZM300.755 229.27C301.253 228.688 301.757 228.105 302.255 227.523L303.33 228.402C303.025 228.758 302.822 229.289 302.388 229.433C301.964 229.582 301.308 229.345 300.755 229.271V229.27ZM1096.17 109.144C1096.88 108.422 1097.6 107.704 1098.31 106.987C1099 107.538 1099.79 108.049 1100.28 108.692C1100.41 108.872 1099.47 109.782 1099.22 109.766C1098.16 109.685 1097.18 109.373 1096.17 109.144ZM541.018 186.245C541.491 185.039 542.534 183.899 543.402 182.711C545.349 183.321 546.525 183.694 547.695 184.057C546.566 185.141 545.616 186.377 544.187 187.217C543.761 187.465 540.928 186.462 541.018 186.245ZM500.183 192.355L499.735 190.212C502.986 189.499 506.233 188.792 509.48 188.09C509.554 189.177 509.634 190.264 509.708 191.351L500.183 192.355ZM831.733 113.727C850.683 111.638 869.636 109.555 891.959 107.097C864.119 121.895 854.479 121.462 832.219 117.26C832.059 116.08 831.893 114.907 831.733 113.727ZM755.643 119.375C769.725 116.868 784.278 115.775 798.558 115.158C803.838 114.934 809.636 117.391 805.451 124.51C785.597 121.476 765.666 122.771 746.941 136.105C741.66 126.647 746.05 121.089 755.643 119.375ZM665.712 135.24C665.158 136.473 664.599 137.702 664.046 138.935C658.986 138.715 653.926 138.496 646.026 138.158C655.271 131.631 660.586 132.62 665.712 135.24ZM711.457 125.564C712.039 124.834 713.371 124.156 714.531 123.888C715.052 123.768 715.931 124.705 717.058 125.425C715.335 126.19 713.766 126.892 712.19 127.584C711.906 126.897 711.08 126.041 711.457 125.564ZM531.68 160.162C529.52 160.341 527.332 158.688 525.445 157.985C526.117 156.589 526.327 155.739 526.565 155.721C543.88 154.197 559.765 150.046 573.095 141.063C590.854 143.743 608.175 138.605 625.677 135.921C627.801 135.596 631.989 137.161 632.236 138.361C632.658 140.398 631.556 143.303 629.519 144.995C627.291 146.845 623.425 148.058 620.031 148.985C591.068 156.908 561.27 157.776 531.68 160.162ZM471.019 170.209C453.915 169.816 437.704 171.911 421.379 176.318C409.336 179.573 397.367 181.12 383.297 178.062C391.057 170.479 399.58 167.325 410.065 166.16C433.164 163.599 456.262 161 479.347 158.269C490.106 156.997 498.443 158.926 507.516 165.409C493.35 167.4 481.839 170.456 471.019 170.209ZM227.16 193.722C227.197 192.535 227.235 191.353 227.271 190.162C232.328 190.136 237.386 190.11 243.854 190.079C237.756 197.283 232.39 194.817 227.16 193.722ZM1875.15 -53.87C1890.86 -63.131 1902.02 -58.175 1917.58 -57.445C1901.82 -49.165 1890.17 -48.478 1875.15 -53.87ZM1844.33 -45.984C1844.29 -47.6671 1844.25 -49.3501 1844.21 -51.033C1849.95 -51.275 1855.68 -51.521 1861.42 -51.768C1861.42 -50.639 1861.42 -49.51 1861.42 -48.386L1844.33 -45.984ZM1361.94 11.262L1375.16 8.38496C1375.47 9.29296 1375.77 10.207 1376.08 11.125L1362.92 14.167C1362.6 13.1973 1362.27 12.2289 1361.94 11.262ZM1603.37 -27.751C1603.8 -27.963 1606.02 -26.251 1608 -25.081C1605.8 -23.748 1604.25 -22.166 1602.66 -22.021C1601.08 -21.882 1599.47 -23.192 1597.86 -23.866C1599.65 -25.21 1601.27 -26.735 1603.37 -27.751ZM1348.04 -8.05303C1348.57 -8.67603 1349.11 -9.30003 1349.64 -9.91903C1350.02 -9.61303 1350.41 -9.30604 1350.79 -8.98904C1350.46 -8.60303 1350.25 -8.03903 1349.79 -7.88503C1349.33 -7.72203 1348.63 -7.97903 1348.04 -8.05303ZM683.543 248.17C667.847 254.966 655.882 258.922 642.029 258.26C653.086 252.084 664.501 246.784 683.543 248.17ZM1236.67 177.595C1245.42 176.088 1254.42 175.863 1263.32 175.078C1243.28 186.845 1231.93 188.634 1212.22 184.708C1217.91 176.525 1228.61 178.969 1236.67 177.595ZM1290.74 176.333C1289.94 176.973 1288.91 178.211 1288.4 178.157C1286.76 177.964 1285.32 177.288 1283.81 176.8C1284.6 176.13 1285.39 175.464 1286.61 174.435C1287.96 175.06 1289.35 175.692 1290.74 176.333ZM1180.23 205.226C1198.61 207.355 1213.96 203.294 1229.17 201.695C1232.67 201.328 1236.08 199.176 1239.56 198.855C1278.03 195.257 1316.51 191.862 1354.97 188.395C1361.51 187.807 1368.73 188.266 1374.46 186.295C1393.59 179.717 1412.63 178.693 1432.35 179.56C1439.97 179.9 1448.16 177.672 1456.1 177C1465.11 176.23 1474.14 175.893 1487.62 175.117C1470.63 182.764 1458.33 188.305 1444.72 194.431C1448.68 200.242 1451.81 204.816 1454.64 208.951C1463.68 209.023 1471.61 209.085 1479.54 209.158C1479.53 210.1 1479.52 211.043 1479.5 211.986C1467.32 216.627 1455.12 221.258 1442.02 226.241C1435.9 223.593 1440 218.908 1440.94 214.724C1443.09 205.19 1437.41 200.368 1423.98 202.213C1398.83 205.674 1373.24 204.283 1348.33 212.086C1339.88 214.739 1329.68 214.216 1320.28 214.916C1289.39 217.196 1258.46 219.939 1227.64 221.238C1218.57 221.613 1209.82 217.772 1200.69 215.814C1193.44 219.598 1185.85 225.486 1176.92 227.582C1170.64 229.055 1162.56 225.376 1155.48 221.414C1162.69 220.094 1169.9 218.777 1179.08 217.088C1174.77 209.664 1166.49 207.331 1156.82 205.705C1147.7 204.173 1137 203.497 1135.41 194.295C1149.49 191.52 1162.78 189.047 1175.97 186.261C1188.63 183.599 1196.79 186.489 1203 194.577C1195.41 198.129 1187.82 201.679 1180.23 205.227V205.226ZM1853.34 114.183C1854.28 114.526 1855.07 115.053 1855.9 115.521C1854.91 116.084 1853.93 116.641 1852.94 117.203C1852.55 116.495 1852.02 115.811 1851.87 115.063C1851.83 114.839 1853.14 114.112 1853.34 114.183ZM1628.17 149.173C1625.11 150.037 1623.03 151.131 1621.52 150.924C1619.94 150.701 1618.92 149.23 1617.65 148.311C1619.39 147.606 1621.27 146.301 1622.82 146.366C1624.45 146.429 1625.75 147.815 1628.17 149.173ZM1978.49 97.534C1968.7 104.201 1962.08 105.054 1955.71 98.797C1965.99 94.445 1965.99 94.445 1978.49 97.534ZM1542.07 203.632C1541.7 206.1 1536.78 209.646 1532.91 210.89C1521.67 214.509 1512.15 210.117 1501.21 211.194C1501.12 209.712 1501.02 208.225 1500.92 206.744C1510.74 203.941 1520.43 200.734 1530.44 198.476C1536.63 197.083 1542.79 198.79 1542.07 203.632ZM1468.08 195.952C1476 185.779 1485.16 187.832 1493.74 189.632C1486.46 191.424 1479.19 193.215 1468.08 195.952ZM1563.82 181.447C1571.35 180.868 1577.48 180.017 1583.46 180.044C1589.92 180.068 1596.18 181.18 1602.62 181.352C1615.89 181.704 1628.3 182.923 1642.47 177.402C1652.56 173.472 1666.27 174.785 1678.34 173.46C1682.37 173.02 1686.55 171.977 1690.28 170.622C1701.42 166.546 1709.76 170.665 1718.01 173.369C1723.28 175.101 1720.64 181.453 1713.92 182.691C1696.07 185.993 1678.12 189.389 1660.11 191.287C1637.72 193.64 1615.22 194.355 1592.78 196.166C1585.71 196.731 1578.66 198.516 1569.19 200.156C1567.31 193.619 1565.84 188.518 1563.82 181.446L1563.82 181.447ZM1867.4 128.643C1886.32 128.023 1890.19 133.575 1880.55 145.81C1879.88 146.651 1879.97 147.727 1879.3 150.178C1887.82 151.292 1895.19 152.263 1902.62 153.243C1901.51 158.883 1897.76 161.563 1890.84 161.627C1888 161.649 1884.49 160.026 1882.59 160.826C1853.07 173.272 1817.61 166.001 1788.78 182.725C1784.1 177.093 1780.46 172.717 1776.2 167.581C1766.97 171.476 1764.96 175.91 1768.11 181.537C1770.8 186.345 1774.52 191.15 1764.6 197.719C1760.57 192.185 1757.11 187.432 1753.1 181.921C1747.61 183.535 1742.13 185.155 1736.65 186.779C1735.24 185.555 1733.16 184.619 1732.94 183.399C1730.51 169.542 1737.39 161.732 1756.87 158.283C1769.57 156.033 1780.16 151.873 1790.8 146.415C1796.19 143.644 1804.31 142.09 1810.79 142.173C1825.04 142.35 1837.75 141.777 1849.24 133.146C1853.11 130.233 1861.34 128.842 1867.4 128.643ZM1938.65 126.859C1937.47 127.733 1936.3 128.609 1935.12 129.488C1932.15 127.668 1929.18 125.848 1926.21 124.038C1927.46 123.098 1928.71 122.165 1929.97 121.231C1932.86 123.109 1935.75 124.981 1938.65 126.859ZM1995.6 132.851L1998.15 135.54C1993.92 139.277 1990.49 145.008 1985.29 146.355C1970.91 150.091 1955.77 153.186 1940.96 154.238C1929.43 155.058 1926.31 148.899 1929.03 142.207L1995.6 132.851ZM2068.88 132.047C2068.12 132.666 2067.25 133.237 2066.41 133.82C2065.69 133.289 2064.98 132.75 2064.28 132.216C2065.42 131.884 2066.54 131.466 2067.71 131.276C2068.05 131.216 2068.92 132.015 2068.88 132.047ZM1859.22 180.458C1845.94 189.968 1829.79 189.19 1813.79 189.18C1828.44 184.622 1842.78 177.735 1859.22 180.458ZM1617.46 211.555C1615.11 211.739 1612.73 209.318 1610.36 208.087C1612.66 206.374 1615.22 203.196 1617.21 203.214C1623.6 203.273 1629.78 204.506 1636.05 205.288C1635.85 206.283 1635.66 207.272 1635.47 208.266C1629.46 209.439 1623.47 211.076 1617.46 211.555ZM1551.93 217.256C1552.06 215.947 1552.18 214.644 1552.3 213.336C1556.54 213.242 1560.78 213.143 1565.02 213.048C1565.04 213.829 1565.06 214.622 1565.08 215.408L1551.93 217.256ZM1319.34 245.109C1295.8 241.213 1272.3 247.287 1248.7 249.689C1228.38 251.759 1207.97 252.323 1187.62 253.275C1176.58 253.795 1167.84 251.559 1165.08 242.598C1196.87 239.485 1226.76 242.232 1257.22 234.841C1277.11 230.011 1297.58 230.329 1317.02 238.884C1326.25 235.119 1337.28 231.604 1346.6 226.519C1355.06 221.9 1362.81 221.882 1371.43 222.784C1388.65 224.593 1405.87 226.376 1423.52 228.224C1401.92 237.681 1383.06 224.986 1361.02 228.163C1358.43 239.16 1345.72 242.091 1332.37 244.218C1328.07 244.902 1323.23 245.754 1319.34 245.109ZM732.813 301.813C731.289 302.649 729.633 304.147 728.271 304.129C726.851 304.109 725.716 302.611 724.458 301.769C725.858 300.871 727.258 299.974 729.226 298.719C730.69 299.983 731.749 300.901 732.813 301.813ZM605.375 309.037C596.919 307.313 592.654 302.109 595.626 296.85C598.934 291 605.28 291.473 611.94 292.1C620.916 292.951 630.01 293.492 641.01 294.31C632.102 305.772 617.352 311.489 605.375 309.037ZM703.179 291.13C694.187 298.343 687.609 299.56 677.549 297.32C684.744 291.342 691.083 289.688 703.179 291.13ZM1115.91 225.046C1118.12 225.113 1120.09 226.19 1123.03 227.136C1120.44 229.106 1118.27 231.166 1117.8 231.023C1115.69 230.373 1113.75 229.261 1112.46 227.952C1112.17 227.653 1114.92 225.008 1115.91 225.046ZM1023.3 241.518C1017.16 247.289 1006.79 247.781 1001.1 243.252C999.259 241.792 998.176 238.435 999.449 236.745C1004.31 230.28 1012.63 226.559 1022.76 225.601C1033.35 224.599 1045.66 219.769 1054.43 229.327C1049.71 230.973 1046.59 232.829 1043.54 232.991C1034.66 233.469 1028.85 236.278 1023.3 241.518ZM1102.5 204.383C1096.72 207.667 1090.95 210.947 1081.81 216.147C1083.38 204.42 1091.92 203.617 1102.5 204.383ZM838.554 249.2C851.681 245.473 865.2 243.087 872.446 232.37C874.528 229.291 884.093 228.124 890.226 226.086C891.144 226.956 892.061 227.826 892.983 228.694C889.277 232.644 885.576 236.594 879.835 242.729C902.951 242.335 923.849 241.975 945.04 241.616C929.243 248.96 871.98 256.506 818.783 256.014C825.362 253.725 831.797 251.116 838.554 249.2ZM552.292 283.8L551.832 281.204C562.442 279.311 573.044 277.418 583.647 275.52L584.627 279.256L552.292 283.801V283.8ZM451.508 82.61C449.152 82.507 447.38 80.054 445.353 78.618C447.402 77.384 449.526 75.203 451.487 75.127C454.221 75.014 456.832 76.482 461.878 77.979C456.735 80.406 453.822 82.703 451.508 82.61ZM461.944 64.35C464.136 63.091 466.122 61.38 468.572 60.696C470.629 60.119 473.231 60.736 475.592 60.828C475.657 61.519 475.715 62.228 475.777 62.93C471.687 63.964 467.594 65.005 463.5 66.046C462.98 65.476 462.463 64.916 461.944 64.351V64.35ZM632.75 45.04C625.522 46.171 618.258 47.234 610.99 48.052C595.31 49.827 581.661 53.072 570.576 63.142C559.849 72.894 549.622 72.962 536.918 66.382C534.431 65.09 531.627 64.072 528.94 62.919C515.702 76.756 503.899 80.193 482.293 75.774C489.909 68.028 497.122 60.688 504.17 53.518C478.309 48.657 451.564 48.333 423.952 53.939C428.4 55.824 431.746 57.24 436.505 59.258C425.773 62.612 416.367 63.986 409.969 67.823C389.399 80.151 365.829 82.454 341.724 84.729C325.724 86.24 309.745 88.533 293.8 90.805C286.153 91.895 279.388 94.2 280.415 100.879C293.827 104.426 294.085 104.855 304.464 101.247C321.709 95.242 338.286 96.237 355.197 97.599C357.499 108.401 338.647 108.29 336.299 115.689C339.814 118.31 343.203 120.845 346.591 123.381C346.803 123.361 347.018 123.326 347.229 123.307C347.407 123.307 347.579 123.299 347.751 123.301C355.708 119.135 356.104 119.231 366.286 123.421C357.469 123.331 352.569 123.283 347.751 123.301C347.489 123.443 347.289 123.544 347.006 123.688C346.871 123.587 346.726 123.477 346.591 123.381C323.47 125.626 302.669 136.946 278.907 136.276C259.17 146.421 237.679 142.305 216.966 144.505C209.765 145.271 199.95 144.513 195.854 147.435C180.769 158.177 163.514 156.45 146.313 157.854C129.613 159.218 110.966 159.01 96.789 164.563C82.418 170.185 69.754 172.069 55.153 172.412C41.364 172.729 27.471 173.756 13.636 174.895C9.36101 175.245 5.11601 176.992 0.859009 178.103C1.10701 178.564 1.35701 179.036 1.60001 179.504C47.494 179.892 93.385 180.292 139.274 180.681C132.014 184.493 124.872 185.267 117.849 186.557C112.901 187.467 106.221 188.149 103.597 190.536C92.046 201.006 80.267 197.48 68.442 194.358C61.504 192.531 55.374 188.865 43.181 193.914C50.728 197.396 55.935 201.412 62.612 202.612C99.622 209.304 138.986 207.312 177.713 206.961C193.21 206.816 201.733 209.283 202.402 219.954C202.752 225.577 203.155 231.193 203.423 235.108C222.923 236.884 238.893 238.89 255.185 239.675C271 240.422 287.147 239.919 304.335 239.977C298.335 251.339 296.378 262.447 287.53 269.801C278.018 277.705 262.025 282.096 248.896 287.998C242.789 286.77 236.941 285.59 230.844 284.361C222.621 289.908 214 294.56 207.626 300.312C199.061 308.041 190.6 309.032 178.843 306.548C165.32 303.696 150.847 302.641 136.781 305.381C142.036 309.551 145.391 313.561 150.491 315.918C156.967 318.923 165.637 323.55 172.001 322.3C191.706 318.427 207.273 321.201 217.197 326.754C230.593 324.872 239.533 323.417 248.509 322.411C256.569 321.503 263.8 320.879 269.908 315.305C281.605 304.643 310.241 299.484 331.858 304.021C319.626 308.788 308.618 313.081 297.609 317.372C298.039 318.383 298.462 319.39 298.892 320.402C304.342 320.164 310.624 318.769 315.026 319.995C319.743 321.303 322.695 325.082 327.224 328.366C343.487 316.748 362.61 316.226 383.331 317.652C381.047 320.336 379.885 321.702 379.781 321.822C392.034 327.942 401.329 322.134 410.201 315.659C412.393 318.759 413.809 320.761 415.441 323.073C428.177 320.138 434.421 314.874 433.016 306.179C425.588 303.689 418.846 301.431 407.862 297.752C421.382 294.812 429.304 293.082 439.802 290.806C423.369 279.753 398.785 294.328 383.742 282.671C399.68 276.405 414.573 276.54 429.557 275.981C437.167 275.701 447.35 275.624 452.155 272.429C472.119 259.172 497.781 256.809 520.737 249.589C532.729 245.823 546.289 244.885 559.182 242.952C575.67 240.484 592.294 238.728 608.688 235.854C620.719 233.744 631.823 233.183 642.49 237.027C603.128 245.434 563.797 252.316 524.481 259.268C518.584 260.312 511.081 260.043 509.251 268.158C541.061 268.132 572.729 258.84 607.385 262.518C592.236 271.39 578.918 271.077 566.156 272.488C553.78 273.852 539.597 272.671 534.456 284.708C534.006 285.753 531.076 287.002 529.174 287.264C508.017 290.174 487.234 300.948 466.769 292.971C441.069 306.631 438.199 310.694 445.755 323.387C457.515 320.615 469.508 317.822 481.469 314.949C492.838 312.216 503.416 304.676 519.444 310.469C492.691 320.733 468.224 330.115 443.04 339.782C446.39 339.803 449.22 340.074 452.019 339.796C479.15 337.102 506.004 336.224 531.824 340.458C540.098 341.815 545 338.455 551.678 335.754C572.331 327.399 593.745 320.066 614.87 312.355C615.522 312.122 616.358 311.932 617.015 311.996C631.39 313.358 646.418 313.63 659.908 316.508C670.466 318.757 678.948 317.58 688.072 313.648C687.927 313.552 687.785 313.454 687.644 313.352C683.517 313.415 679.208 313.482 672.678 313.589C681.755 307.389 684.458 311.029 687.644 313.352C688.034 313.339 688.442 313.339 688.833 313.332C688.578 313.451 688.323 313.534 688.072 313.647L688.269 313.782C690.87 312.69 693.444 310.838 696.016 310.654C714.845 309.257 733.696 307.914 752.491 307.239C756.881 307.082 760.856 309.922 765.373 310.699C771.86 311.81 778.668 312.297 785.34 313.048C787.939 304.945 801.269 308.54 805.526 303.864C812.363 296.342 818.946 301.298 825.956 302.143C829.088 298.388 831.678 295.279 834.273 292.17C840.46 284.744 846.603 282.182 854.843 286.456C863.346 290.865 872.709 289.376 881.223 288.541C890.66 287.607 896.225 289.486 901.293 293.557C901.505 293.427 901.729 293.307 901.941 293.178C902.164 293.283 902.321 293.36 902.539 293.455C907.551 292.515 912.686 291.553 919.766 290.224C911.581 297.454 911.324 297.595 902.539 293.455C902.173 293.527 901.806 293.595 901.444 293.661C901.392 293.627 901.344 293.591 901.293 293.557C895.547 296.882 889.801 300.205 884.051 303.524C914.781 301.511 942.773 297.765 969.848 298.388C1005.06 299.206 1038.41 283.231 1073.93 287.75C1083.55 288.975 1096.02 282.612 1107.37 280.765C1120.13 278.689 1133.11 277.78 1145.99 276.363C1152.68 287.212 1168.48 282.152 1180.14 282.197C1196.53 282.262 1213.41 279.455 1230.09 277.807C1253.33 275.497 1276.57 272.691 1299.81 270.93C1317.07 269.623 1334.33 269.623 1350.73 269.07C1353.71 264.103 1355.58 260.98 1357.4 257.965C1360.85 257.902 1363.12 257.589 1365.12 257.872C1391.54 261.666 1418.31 263.007 1446.16 257.676C1448.25 257.278 1450.52 257.608 1452.7 257.437C1486.21 254.771 1519.73 252.277 1553.25 249.339C1577.84 247.179 1602.43 244.424 1628.14 241.824C1624.97 238.407 1623 236.289 1621.06 234.199C1630.41 227.855 1639.36 229.859 1645.73 233.032C1657.78 239.044 1671 237.892 1685 235.795C1754.98 225.327 1824.96 214.875 1899.44 203.744L1879.85 196.181C1895.11 186.529 1912.12 184.322 1927.22 183.679C1945.62 182.901 1962.98 180.2 1980.75 176.589C1986.44 175.434 1993.85 175.879 1998.8 177.571C2009.55 181.241 2020.15 181.065 2032.28 178.858C2048.08 175.983 2064.28 174.851 2080.1 172.022C2103.79 167.777 2127.51 163.304 2150.82 157.796C2167.95 153.747 2176.45 142.964 2183.04 132.392C2188.52 123.597 2180.38 117.458 2174.08 111.202C2171.84 108.971 2169.33 106.292 2169.32 103.627C2169.26 93.315 2167.11 82.466 2171.63 72.69C2175.58 64.178 2171.54 59.524 2167.11 53.731C2164.94 50.894 2161.28 47.587 2162.13 44.765C2166.33 30.942 2169.02 16.517 2177.52 3.61097C2189.95 -15.259 2188.05 -31.229 2176.4 -47.592C2171.7 -54.172 2169.54 -62.155 2168.87 -69.804C2167.85 -81.497 2166.39 -83.78 2149.07 -82.926C2133.07 -82.12 2119.51 -84.291 2106.9 -90.278C2100.42 -93.352 2091.57 -95.076 2083.28 -95.46C2061.97 -96.443 2040.67 -98.735 2018.61 -91.97C2012.18 -90.004 2004.21 -90.992 1996.95 -90.661C1975.17 -89.686 1953.01 -90.781 1931.71 -87.306C1897.47 -81.72 1863.88 -77.58 1829.94 -80.286C1824.57 -80.719 1818.42 -79.399 1812.8 -78.275C1799.29 -75.55 1785.87 -72.461 1770.76 -69.155C1758.35 -60.841 1756.8 -49.126 1757 -37.375C1743.61 -36.1 1733.09 -35.102 1722.78 -34.118C1722.5 -36.071 1721.69 -37.432 1722.34 -37.931C1726.8 -41.361 1731.61 -44.582 1736.23 -47.918C1743.72 -53.348 1743.41 -60.088 1734.7 -62.823C1727.1 -65.201 1719.04 -66.734 1710.39 -61.34C1706.13 -58.698 1700.39 -56.365 1695.06 -55.57C1679.19 -53.197 1663.19 -51.194 1647.22 -49.901C1611.77 -47.037 1576.32 -44.626 1540.87 -42.175C1516.35 -40.479 1491.82 -38.872 1467.3 -37.581C1463.22 -37.373 1459.33 -39.545 1455.16 -39.581C1449.1 -39.634 1442.26 -39.86 1436.82 -38.091C1405.22 -27.847 1372.78 -22.321 1339.22 -18.994C1321.63 -17.254 1300.36 -20.22 1287.51 -5.27503C1286.7 -4.33503 1283.48 -4.13004 1281.35 -3.78803C1260.7 -0.410034 1240.04 2.90197 1219.41 6.35997C1218.63 6.49097 1218.11 7.94297 1215.88 10.887C1223.09 10.637 1228.95 10.834 1234.72 10.153C1253.25 7.96197 1270.99 6.10596 1281.15 19.453C1283.63 22.712 1290.55 24.144 1296.2 26.784C1301.14 12.921 1306.28 9.99297 1323.34 11.161C1329.62 11.589 1337.46 12.193 1341.15 14.936C1352 22.984 1366.62 21.572 1380.91 21.619C1388.88 21.639 1396.87 21.488 1404.84 21.47C1417.69 21.431 1419.68 26.39 1416.45 35.408C1367.32 35.564 1319.08 35.72 1271.27 35.872C1269.64 19.847 1266.77 17.385 1245.39 18.111C1222.87 18.877 1200.18 21.406 1177.64 22.274C1168.91 22.607 1160.36 20.646 1151.73 19.646C1151.82 19.586 1151.93 19.513 1152.02 19.443C1151.74 19.488 1151.44 19.526 1151.16 19.581C1151.13 19.5732 1151.1 19.5685 1151.07 19.567L1151.61 19.731C1131.72 20.471 1111.8 21.452 1091.98 21.755C1087.4 21.823 1081.46 20.473 1079.01 18.218C1070.88 10.709 1059.49 12.205 1047.72 13.635C1031.18 15.641 1014.65 17.739 998.091 19.396C995.214 19.68 992.234 18.008 988.173 16.937C1001.62 4.11996 1022.67 9.45997 1036.79 1.00297C1021.77 -0.259033 1007.01 2.43297 992.161 4.16897C974.883 6.18397 956.186 10.302 940.554 8.07097C923.034 5.57697 906.554 6.60697 889.183 8.33197C885.614 8.68197 880.663 9.24197 878.627 7.99097C864.288 -0.811035 847.229 4.77097 830.957 6.91597C804.963 10.334 779.014 14.154 750.857 18.111C754.902 22.635 757.947 26.039 761.466 29.978C749.596 36.064 738.661 41.511 726.751 33.398C728.667 29.213 730.531 25.134 732.615 20.586C725.711 22.722 720.6 25.228 715.405 25.723C702.481 26.953 689.515 27.359 676.575 27.918C669.477 28.22 662.405 28.158 655.313 28.256C651.467 42.065 651.453 42.114 632.75 45.04Z" fill="#DADEED" fill-opacity="0.5"/>
</g>
<defs>
<clipPath id="clip0_44_3">
<rect width="1214" height="341" fill="white"/>
</clipPath>
</defs>
</svg>
